<mxfile host="app.diagrams.net" modified="2023-04-14T08:59:21.784Z" agent="Mozilla/5.0 (Windows NT 10.0; Win64; x64) AppleWebKit/537.36 (KHTML, like Gecko) Chrome/112.0.0.0 Safari/537.36" etag="20e2ECHUuGfPe54FeLdV" version="21.1.7" type="device">
  <diagram name="Page-1" id="uvF2b1CFNzaqrcFvmoZ_">
    <mxGraphModel dx="1434" dy="796" grid="1" gridSize="10" guides="1" tooltips="1" connect="1" arrows="1" fold="1" page="1" pageScale="1" pageWidth="850" pageHeight="1100" math="0" shadow="0">
      <root>
        <mxCell id="0" />
        <mxCell id="1" parent="0" />
        <mxCell id="1aBOYWwvBcNiE-IknuQS-22" style="edgeStyle=orthogonalEdgeStyle;rounded=0;orthogonalLoop=1;jettySize=auto;html=1;entryX=0;entryY=0.5;entryDx=0;entryDy=0;" edge="1" parent="1" source="1aBOYWwvBcNiE-IknuQS-1" target="1aBOYWwvBcNiE-IknuQS-4">
          <mxGeometry relative="1" as="geometry">
            <Array as="points">
              <mxPoint x="100" y="250" />
            </Array>
          </mxGeometry>
        </mxCell>
        <mxCell id="1aBOYWwvBcNiE-IknuQS-1" value="Readers.las" style="ellipse;whiteSpace=wrap;html=1;fillColor=#fff2cc;strokeColor=#d6b656;" vertex="1" parent="1">
          <mxGeometry x="40" y="110" width="120" height="80" as="geometry" />
        </mxCell>
        <mxCell id="1aBOYWwvBcNiE-IknuQS-13" style="edgeStyle=orthogonalEdgeStyle;rounded=0;orthogonalLoop=1;jettySize=auto;html=1;entryX=0.5;entryY=0;entryDx=0;entryDy=0;" edge="1" parent="1" source="1aBOYWwvBcNiE-IknuQS-2" target="1aBOYWwvBcNiE-IknuQS-1">
          <mxGeometry relative="1" as="geometry" />
        </mxCell>
        <mxCell id="1aBOYWwvBcNiE-IknuQS-2" value="LAZ file" style="rounded=0;whiteSpace=wrap;html=1;fillColor=#dae8fc;strokeColor=#6c8ebf;" vertex="1" parent="1">
          <mxGeometry x="40" y="10" width="120" height="60" as="geometry" />
        </mxCell>
        <mxCell id="1aBOYWwvBcNiE-IknuQS-25" style="edgeStyle=orthogonalEdgeStyle;rounded=0;orthogonalLoop=1;jettySize=auto;html=1;entryX=0.5;entryY=0;entryDx=0;entryDy=0;" edge="1" parent="1" source="1aBOYWwvBcNiE-IknuQS-4" target="1aBOYWwvBcNiE-IknuQS-23">
          <mxGeometry relative="1" as="geometry" />
        </mxCell>
        <mxCell id="1aBOYWwvBcNiE-IknuQS-4" value="filters.merge" style="ellipse;whiteSpace=wrap;html=1;fillColor=#f8cecc;strokeColor=#b85450;" vertex="1" parent="1">
          <mxGeometry x="260" y="210" width="120" height="80" as="geometry" />
        </mxCell>
        <mxCell id="1aBOYWwvBcNiE-IknuQS-14" style="edgeStyle=orthogonalEdgeStyle;rounded=0;orthogonalLoop=1;jettySize=auto;html=1;entryX=0.5;entryY=0;entryDx=0;entryDy=0;" edge="1" parent="1" source="1aBOYWwvBcNiE-IknuQS-7" target="1aBOYWwvBcNiE-IknuQS-10">
          <mxGeometry relative="1" as="geometry" />
        </mxCell>
        <mxCell id="1aBOYWwvBcNiE-IknuQS-7" value="LAZ file" style="rounded=0;whiteSpace=wrap;html=1;fillColor=#dae8fc;strokeColor=#6c8ebf;" vertex="1" parent="1">
          <mxGeometry x="180" y="10" width="120" height="60" as="geometry" />
        </mxCell>
        <mxCell id="1aBOYWwvBcNiE-IknuQS-15" style="edgeStyle=orthogonalEdgeStyle;rounded=0;orthogonalLoop=1;jettySize=auto;html=1;entryX=0.5;entryY=0;entryDx=0;entryDy=0;" edge="1" parent="1" source="1aBOYWwvBcNiE-IknuQS-8" target="1aBOYWwvBcNiE-IknuQS-11">
          <mxGeometry relative="1" as="geometry" />
        </mxCell>
        <mxCell id="1aBOYWwvBcNiE-IknuQS-8" value="LAZ file" style="rounded=0;whiteSpace=wrap;html=1;fillColor=#dae8fc;strokeColor=#6c8ebf;" vertex="1" parent="1">
          <mxGeometry x="320" y="10" width="120" height="60" as="geometry" />
        </mxCell>
        <mxCell id="1aBOYWwvBcNiE-IknuQS-17" style="edgeStyle=orthogonalEdgeStyle;rounded=0;orthogonalLoop=1;jettySize=auto;html=1;entryX=0.5;entryY=0;entryDx=0;entryDy=0;" edge="1" parent="1" source="1aBOYWwvBcNiE-IknuQS-9" target="1aBOYWwvBcNiE-IknuQS-12">
          <mxGeometry relative="1" as="geometry" />
        </mxCell>
        <mxCell id="1aBOYWwvBcNiE-IknuQS-9" value="LAZ file" style="rounded=0;whiteSpace=wrap;html=1;fillColor=#dae8fc;strokeColor=#6c8ebf;" vertex="1" parent="1">
          <mxGeometry x="460" y="10" width="120" height="60" as="geometry" />
        </mxCell>
        <mxCell id="1aBOYWwvBcNiE-IknuQS-19" style="edgeStyle=orthogonalEdgeStyle;rounded=0;orthogonalLoop=1;jettySize=auto;html=1;" edge="1" parent="1" source="1aBOYWwvBcNiE-IknuQS-10" target="1aBOYWwvBcNiE-IknuQS-4">
          <mxGeometry relative="1" as="geometry" />
        </mxCell>
        <mxCell id="1aBOYWwvBcNiE-IknuQS-10" value="Readers.las" style="ellipse;whiteSpace=wrap;html=1;fillColor=#fff2cc;strokeColor=#d6b656;" vertex="1" parent="1">
          <mxGeometry x="180" y="110" width="120" height="80" as="geometry" />
        </mxCell>
        <mxCell id="1aBOYWwvBcNiE-IknuQS-20" style="edgeStyle=orthogonalEdgeStyle;rounded=0;orthogonalLoop=1;jettySize=auto;html=1;" edge="1" parent="1" source="1aBOYWwvBcNiE-IknuQS-11" target="1aBOYWwvBcNiE-IknuQS-4">
          <mxGeometry relative="1" as="geometry" />
        </mxCell>
        <mxCell id="1aBOYWwvBcNiE-IknuQS-11" value="Readers.las" style="ellipse;whiteSpace=wrap;html=1;fillColor=#fff2cc;strokeColor=#d6b656;" vertex="1" parent="1">
          <mxGeometry x="320" y="110" width="120" height="80" as="geometry" />
        </mxCell>
        <mxCell id="1aBOYWwvBcNiE-IknuQS-21" style="edgeStyle=orthogonalEdgeStyle;rounded=0;orthogonalLoop=1;jettySize=auto;html=1;" edge="1" parent="1" source="1aBOYWwvBcNiE-IknuQS-12" target="1aBOYWwvBcNiE-IknuQS-4">
          <mxGeometry relative="1" as="geometry">
            <Array as="points">
              <mxPoint x="530" y="250" />
            </Array>
          </mxGeometry>
        </mxCell>
        <mxCell id="1aBOYWwvBcNiE-IknuQS-12" value="Readers.las" style="ellipse;whiteSpace=wrap;html=1;fillColor=#fff2cc;strokeColor=#d6b656;" vertex="1" parent="1">
          <mxGeometry x="460" y="110" width="120" height="80" as="geometry" />
        </mxCell>
        <mxCell id="1aBOYWwvBcNiE-IknuQS-27" style="edgeStyle=orthogonalEdgeStyle;rounded=0;orthogonalLoop=1;jettySize=auto;html=1;" edge="1" parent="1" source="1aBOYWwvBcNiE-IknuQS-23" target="1aBOYWwvBcNiE-IknuQS-26">
          <mxGeometry relative="1" as="geometry" />
        </mxCell>
        <mxCell id="1aBOYWwvBcNiE-IknuQS-23" value="filters.crop" style="ellipse;whiteSpace=wrap;html=1;fillColor=#f8cecc;strokeColor=#b85450;" vertex="1" parent="1">
          <mxGeometry x="260" y="330" width="120" height="70" as="geometry" />
        </mxCell>
        <mxCell id="1aBOYWwvBcNiE-IknuQS-29" style="edgeStyle=orthogonalEdgeStyle;rounded=0;orthogonalLoop=1;jettySize=auto;html=1;entryX=0.5;entryY=0;entryDx=0;entryDy=0;" edge="1" parent="1" source="1aBOYWwvBcNiE-IknuQS-26" target="1aBOYWwvBcNiE-IknuQS-28">
          <mxGeometry relative="1" as="geometry" />
        </mxCell>
        <mxCell id="1aBOYWwvBcNiE-IknuQS-26" value="filters.assign" style="ellipse;whiteSpace=wrap;html=1;fillColor=#f8cecc;strokeColor=#b85450;" vertex="1" parent="1">
          <mxGeometry x="260" y="430" width="120" height="80" as="geometry" />
        </mxCell>
        <mxCell id="1aBOYWwvBcNiE-IknuQS-31" style="edgeStyle=orthogonalEdgeStyle;rounded=0;orthogonalLoop=1;jettySize=auto;html=1;entryX=0.5;entryY=0;entryDx=0;entryDy=0;" edge="1" parent="1" source="1aBOYWwvBcNiE-IknuQS-28" target="1aBOYWwvBcNiE-IknuQS-30">
          <mxGeometry relative="1" as="geometry" />
        </mxCell>
        <mxCell id="1aBOYWwvBcNiE-IknuQS-28" value="Writers.las" style="ellipse;whiteSpace=wrap;html=1;fillColor=#fff2cc;strokeColor=#d6b656;" vertex="1" parent="1">
          <mxGeometry x="260" y="550" width="120" height="80" as="geometry" />
        </mxCell>
        <mxCell id="1aBOYWwvBcNiE-IknuQS-30" value="Result LAZ file" style="rounded=0;whiteSpace=wrap;html=1;fillColor=#dae8fc;strokeColor=#6c8ebf;" vertex="1" parent="1">
          <mxGeometry x="260" y="670" width="120" height="60" as="geometry" />
        </mxCell>
      </root>
    </mxGraphModel>
  </diagram>
</mxfile>
